<?xml version="1.0" standalone="no"?>
<!DOCTYPE svg PUBLIC "-//W3C//DTD SVG 20010904//EN"
 "http://www.w3.org/TR/2001/REC-SVG-20010904/DTD/svg10.dtd">
<svg version="1.0" xmlns="http://www.w3.org/2000/svg"
 width="300.000000pt" height="300.000000pt" viewBox="0 0 300.000000 300.000000"
 preserveAspectRatio="xMidYMid meet">
<metadata>
Created by potrace 1.11, written by Peter Selinger 2001-2013
</metadata>
<g transform="translate(0.000000,300.000000) scale(0.100000,-0.100000)"
fill="#000000" stroke="none">
<path d="M1502 2870 c-2 -3 -5 -22 -8 -43 -6 -62 -42 -205 -60 -240 -37 -72
-96 -146 -180 -227 -181 -175 -205 -200 -249 -269 -58 -89 -92 -180 -103 -273
-26 -214 36 -434 158 -558 45 -45 233 -170 257 -170 3 0 31 -15 62 -34 38 -24
64 -49 81 -77 l23 -43 -55 56 c-57 56 -117 91 -235 134 -139 50 -222 122 -284
249 -75 152 -112 326 -110 518 0 54 -3 96 -7 93 -14 -9 -22 -825 -9 -889 37
-173 147 -342 262 -399 28 -14 91 -36 140 -49 191 -49 267 -94 303 -177 22
-51 37 -163 37 -279 0 -57 3 -70 12 -60 16 16 19 588 3 695 -20 143 -73 216
-220 302 -150 87 -222 184 -226 301 -3 97 18 130 169 273 141 132 201 206 170
207 -10 0 -114 1 -230 1 -117 1 -213 4 -213 7 0 4 24 30 54 60 l53 52 199 2
198 2 8 39 c8 35 7 808 0 796z"/>
<path d="M1646 2669 l-26 -20 0 -325 0 -324 -47 -1 c-27 0 -142 0 -257 0 -203
0 -209 -1 -227 -22 -10 -12 -18 -24 -19 -27 0 -3 122 -6 271 -5 149 0 273 -3
275 -6 2 -4 4 -381 4 -840 l0 -832 28 26 27 26 0 811 c0 445 2 811 5 811 3 1
118 2 255 3 138 1 256 5 262 9 7 5 17 16 23 26 9 18 -1 19 -260 19 -148 0
-272 2 -277 5 -5 3 -8 159 -8 346 0 188 0 341 -1 341 -1 0 -13 -9 -28 -21z"/>
<path d="M1823 388 c-42 -20 -53 -99 -18 -128 30 -25 72 -29 103 -10 57 35 49
116 -14 140 -31 12 -43 12 -71 -2z m93 -33 c21 -32 12 -69 -21 -91 -61 -40
-127 44 -75 96 29 29 76 26 96 -5z"/>
<path d="M1843 363 c-15 -6 -18 -93 -3 -93 6 0 10 10 10 23 l1 22 18 -22 c24
-28 34 -29 26 -3 -3 10 -1 28 4 39 8 15 8 22 -1 28 -16 10 -39 12 -55 6z m41
-22 c3 -5 0 -11 -8 -14 -15 -6 -26 1 -26 15 0 11 27 10 34 -1z"/>
</g>
</svg>
