<svg xmlns="http://www.w3.org/2000/svg" xmlns:xlink="http://www.w3.org/1999/xlink" xmlns:a="http://ns.adobe.com/AdobeSVGViewerExtensions/3.0/" version="1.1" x="0" y="0" width="334.8" height="109.8" viewBox="0 0 334.8 109.8" xml:space="preserve"><style type="text/css">
	.st0{clip-path:url(#SVGID_2_);fill:#FFFFFF;}
	.st1{clip-path:url(#SVGID_4_);}
	.st2{clip-path:url(#SVGID_6_);fill:#FFFFFF;}
	.st3{clip-path:url(#SVGID_8_);fill:none;stroke:#231F20;stroke-miterlimit:10;}
	.st4{clip-path:url(#SVGID_10_);}
	.st5{clip-path:url(#SVGID_13_);}
	.st6{clip-path:url(#SVGID_14_);fill:#E4002B;}
	.st7{clip-path:url(#SVGID_14_);fill:#FFFFFF;}
	.st8{fill:#FFFFFF;}
	.st9{clip-path:url(#SVGID_16_);fill:#FFFFFF;}
	.st10{clip-path:url(#SVGID_18_);}
	.st11{clip-path:url(#SVGID_20_);fill:#FFFFFF;}
	.st12{clip-path:url(#SVGID_22_);fill:none;stroke:#231F20;stroke-miterlimit:10;}
	.st13{clip-path:url(#SVGID_24_);}
	.st14{clip-path:url(#SVGID_27_);}
	.st15{clip-path:url(#SVGID_28_);fill:#E4002B;}
	.st16{clip-path:url(#SVGID_28_);fill:#FFFFFF;}
</style><defs><rect id="SVGID_1_" x="127.1" width="77.8" height="106.3"/></defs><clipPath id="SVGID_2_"><use xlink:href="#SVGID_1_"/></clipPath><polygon class="st0" points="182.1 42.2 169.8 42.2 169.8 26.8 168.7 27.9 168.7 42.2 157.4 42.2 156.3 43.3 168.7 43.3 168.7 80.2 169.8 79.2 169.8 43.3 181.1 43.3 "/><defs><rect id="SVGID_3_" x="127.1" width="77.8" height="106.3"/></defs><clipPath id="SVGID_4_"><use xlink:href="#SVGID_3_"/></clipPath><g class="st1"><defs><rect id="SVGID_5_" x="127.1" width="77.8" height="106.3"/></defs><clipPath id="SVGID_6_"><use xlink:href="#SVGID_5_"/></clipPath><path class="st2" d="M175.7 76.7"/><defs><rect id="SVGID_7_" x="127.1" width="77.8" height="106.3"/></defs><clipPath id="SVGID_8_"><use xlink:href="#SVGID_7_"/></clipPath><path class="st3" d="M175.7 76.7"/><defs><rect id="SVGID_9_" x="127.1" width="77.8" height="106.3"/></defs><clipPath id="SVGID_10_"><use xlink:href="#SVGID_9_"/></clipPath><g class="st4"><defs><rect id="SVGID_11_" x="127.1" width="77.8" height="106.3"/></defs><defs><rect id="SVGID_12_" x="127.1" width="77.8" height="106.3"/></defs><clipPath id="SVGID_13_"><use xlink:href="#SVGID_11_"/></clipPath><clipPath id="SVGID_14_" class="st5"><use xlink:href="#SVGID_12_"/></clipPath><path class="st6" d="M161.6 61.2c-5.6-3.2-4.7-7.1-4.7-7.1 0-2.4 2-4 5.5-7 1.1-0.9 1.8-2 2.4-3h-10.4l2.5-2.7h8.8c0.3-1.2 0.3-2 0.3-2.3V22.8c0-0.1-0.2 0.3-0.2 0.3 0 0.8-0.1 2.2-0.8 4.7 -1.3 4.7-6.9 8.4-8.3 10.1 -3 3.7-4.7 7.1-3.9 13.2 0.4 2.8 1.9 6.6 4.9 8.7 1.8 1.3 6.1 3.2 6.8 4.1 0.8 0.9 1.3 3 0.9 2.2 -0.4-0.9-1.6-3-6.6-4.6 -5-1.6-6.5-5.8-7.7-9.8 -1.1-4.1-0.8-9.3-0.8-9.3l-0.3 0.2c0 0-0.3 14.9-0.3 16.4s0.3 4.5 1.6 7c3.3 6.1 5.9 5.2 10.4 6.8 4 1.4 4.1 3.7 4.4 5.1s0.3 5.7 0.3 5.7l0.5-0.4V73c0-1.1 0.1-2.3-0.3-5.4C166.4 64.5 165 63 161.6 61.2"/><path class="st7" d="M174 80.7c-0.8 0-1.4-0.6-1.4-1.5 0-0.8 0.6-1.5 1.4-1.5 0.8 0 1.4 0.6 1.4 1.5C175.4 80 174.8 80.7 174 80.7M174 81c1 0 1.8-0.8 1.8-1.8s-0.8-1.8-1.8-1.8 -1.8 0.8-1.8 1.8C172.2 80.2 173 81 174 81M173.6 78.5h0.4c0.3 0 0.5 0.1 0.5 0.3 0 0.3-0.2 0.3-0.5 0.3h-0.4V78.5zM173.6 79.3h0.3l0.5 0.9h0.4l-0.6-0.9c0.3 0 0.5-0.2 0.5-0.6 0-0.4-0.2-0.6-0.7-0.6h-0.8v2.1h0.3v-0.9H173.6z"/></g></g><path class="st8" d="M0 105.9V89.2h8v2.5H2.9V96h3.8v2.5H2.9v7.4H0z"/><path class="st8" d="M10.1 91.5v-2.4h2.6v2.4H10.1zM10.1 105.9V93.4h2.6v12.4H10.1z"/><path class="st8" d="M15.2 105.9V93.4h2.5v1.5h0c0.3-0.5 0.7-1 1.2-1.2 0.5-0.3 1.1-0.4 1.7-0.4h0.5v2.7c-0.2-0.1-0.5-0.1-0.7-0.2 -0.2-0.1-0.6-0.1-0.9-0.1 -0.4 0-0.8 0.1-1.2 0.4 -0.4 0.3-0.5 0.7-0.5 1.2v8.5H15.2z"/><path class="st8" d="M27.6 96.9c-0.2-1-0.7-1.5-1.5-1.5 -0.3 0-0.6 0.1-0.8 0.3C25.1 95.8 25 96 25 96.3c0 0.3 0.1 0.6 0.4 0.9s0.5 0.5 0.9 0.8 0.8 0.6 1.2 0.9c0.4 0.3 0.8 0.6 1.2 1 0.4 0.4 0.7 0.8 0.9 1.2 0.2 0.5 0.4 1 0.4 1.6 0 0.6-0.1 1-0.3 1.5 -0.2 0.4-0.4 0.8-0.8 1.1 -0.3 0.3-0.7 0.5-1.2 0.6 -0.4 0.1-0.9 0.2-1.5 0.2 -1.1 0-2-0.3-2.7-0.9 -0.6-0.6-1.1-1.5-1.3-2.6l2.3-0.6c0.1 0.5 0.2 1 0.5 1.4 0.2 0.4 0.7 0.6 1.2 0.6 0.3 0 0.6-0.1 0.8-0.3 0.2-0.2 0.3-0.5 0.3-0.8s-0.1-0.7-0.4-1c-0.2-0.3-0.5-0.6-0.9-0.9 -0.4-0.3-0.8-0.6-1.2-0.9 -0.4-0.3-0.8-0.6-1.2-1 -0.4-0.4-0.7-0.7-0.9-1.2s-0.4-0.9-0.4-1.5c0-0.5 0.1-0.9 0.3-1.4 0.2-0.4 0.4-0.8 0.7-1.1 0.3-0.3 0.7-0.5 1.1-0.7 0.4-0.2 0.9-0.2 1.4-0.2 1 0 1.9 0.3 2.5 0.9 0.7 0.6 1.1 1.4 1.3 2.4L27.6 96.9z"/><path class="st8" d="M30.9 95.6v-2.1h1.4v-3.3h2.6v3.3h1.7v2.1h-1.7v7.2c0 0.7 0.3 1 0.9 1h0.9v2.2c-0.2 0-0.3 0.1-0.5 0.1s-0.4 0-0.8 0c-1 0-1.7-0.2-2.2-0.7s-0.8-1.2-0.8-2.1v-7.7H30.9z"/><path class="st8" d="M43.6 89.2h2.9v12.6c0 1.2 0.5 1.8 1.5 1.8 1 0 1.5-0.6 1.5-1.8V89.2h2.9v12.5c0 1.4-0.4 2.5-1.2 3.3 -0.8 0.8-1.9 1.1-3.2 1.1s-2.4-0.4-3.2-1.1c-0.8-0.8-1.2-1.9-1.2-3.3V89.2z"/><path class="st8" d="M55 105.9V93.4h2.4v1.2c0.3-0.2 0.5-0.4 0.7-0.6 0.2-0.2 0.4-0.3 0.7-0.5s0.5-0.2 0.8-0.3c0.3-0.1 0.6-0.1 1-0.1 0.7 0 1.2 0.2 1.6 0.7 0.4 0.5 0.6 1.1 0.6 1.9v10h-2.6v-9.6c0-0.3-0.1-0.5-0.3-0.7s-0.4-0.2-0.7-0.2c-0.3 0-0.5 0.1-0.8 0.2 -0.3 0.2-0.5 0.3-0.9 0.6v9.7H55z"/><path class="st8" d="M65.3 91.5v-2.4h2.6v2.4H65.3zM65.3 105.9V93.4h2.6v12.4H65.3z"/><path class="st8" d="M69.4 95.6v-2.1h1.4v-3.3h2.6v3.3h1.7v2.1h-1.7v7.2c0 0.7 0.3 1 0.9 1h0.9v2.2c-0.2 0-0.3 0.1-0.5 0.1s-0.4 0-0.8 0c-1 0-1.7-0.2-2.2-0.7s-0.8-1.2-0.8-2.1v-7.7H69.4z"/><path class="st8" d="M84.7 100.1h-5.5v1.8c0 0.7 0.1 1.2 0.4 1.6 0.2 0.3 0.6 0.5 1.1 0.5s0.8-0.2 1.1-0.5c0.2-0.3 0.4-0.8 0.4-1.6v-0.3h2.6c0 0.7-0.1 1.3-0.2 1.8 -0.1 0.5-0.4 1-0.7 1.4 -0.3 0.4-0.7 0.7-1.2 0.9 -0.5 0.2-1.1 0.3-1.8 0.3 -0.7 0-1.4-0.1-1.9-0.3 -0.5-0.2-0.9-0.5-1.2-0.9 -0.3-0.4-0.6-0.9-0.7-1.5 -0.1-0.6-0.2-1.2-0.2-1.9v-3.6c0-0.7 0.1-1.3 0.2-1.9 0.1-0.6 0.4-1.1 0.7-1.5 0.3-0.4 0.7-0.7 1.2-0.9 0.5-0.2 1.1-0.3 1.9-0.3 0.7 0 1.4 0.1 1.9 0.3 0.5 0.2 0.9 0.5 1.2 0.9 0.3 0.4 0.6 0.9 0.7 1.5 0.1 0.6 0.2 1.2 0.2 1.9V100.1zM82.1 98v-0.6c0-0.7-0.1-1.2-0.4-1.6 -0.2-0.3-0.6-0.5-1.1-0.5s-0.8 0.2-1.1 0.5c-0.2 0.3-0.4 0.8-0.4 1.6V98H82.1z"/><path class="st8" d="M92.4 105.9v-1.3h0c-0.4 0.5-0.8 0.9-1.2 1.2 -0.4 0.2-0.9 0.4-1.5 0.4 -0.8 0-1.5-0.3-1.9-0.9s-0.7-1.4-0.7-2.6v-6c0-1.1 0.2-2 0.7-2.6 0.5-0.6 1.1-0.9 1.9-0.9 0.3 0 0.5 0 0.8 0.1 0.2 0.1 0.4 0.1 0.6 0.3 0.2 0.1 0.4 0.3 0.6 0.4 0.2 0.2 0.4 0.3 0.7 0.5v-5.3h2.6v16.7H92.4zM92.3 96c-0.3-0.2-0.5-0.3-0.7-0.5s-0.5-0.2-0.7-0.2c-0.4 0-0.7 0.1-0.9 0.4s-0.4 0.8-0.4 1.6v4.6c0 0.8 0.1 1.4 0.4 1.6 0.2 0.3 0.5 0.4 0.9 0.4 0.3 0 0.5-0.1 0.7-0.2 0.2-0.1 0.5-0.3 0.7-0.5V96z"/><path class="st8" d="M114.1 89.2v16.7h-2.5v-13h0l-2.6 13h-1.4l-2.6-13h0v13h-2.5V89.2h3.8l2 9.7h0l2-9.7H114.1z"/><path class="st8" d="M124.5 100.1H119v1.8c0 0.7 0.1 1.2 0.4 1.6 0.2 0.3 0.6 0.5 1.1 0.5s0.8-0.2 1.1-0.5c0.2-0.3 0.4-0.8 0.4-1.6v-0.3h2.6c0 0.7-0.1 1.3-0.2 1.8 -0.1 0.5-0.4 1-0.7 1.4 -0.3 0.4-0.7 0.7-1.2 0.9 -0.5 0.2-1.1 0.3-1.8 0.3 -0.7 0-1.4-0.1-1.9-0.3 -0.5-0.2-0.9-0.5-1.2-0.9 -0.3-0.4-0.6-0.9-0.7-1.5 -0.1-0.6-0.2-1.2-0.2-1.9v-3.6c0-0.7 0.1-1.3 0.2-1.9 0.1-0.6 0.4-1.1 0.7-1.5 0.3-0.4 0.7-0.7 1.2-0.9 0.5-0.2 1.1-0.3 1.9-0.3 0.7 0 1.4 0.1 1.9 0.3 0.5 0.2 0.9 0.5 1.2 0.9 0.3 0.4 0.6 0.9 0.7 1.5 0.1 0.6 0.2 1.2 0.2 1.9V100.1zM121.9 98v-0.6c0-0.7-0.1-1.2-0.4-1.6 -0.2-0.3-0.6-0.5-1.1-0.5s-0.8 0.2-1.1 0.5c-0.2 0.3-0.4 0.8-0.4 1.6V98H121.9z"/><path class="st8" d="M125.8 95.6v-2.1h1.4v-3.3h2.6v3.3h1.7v2.1h-1.7v7.2c0 0.7 0.3 1 0.9 1h0.9v2.2c-0.2 0-0.3 0.1-0.5 0.1s-0.4 0-0.8 0c-1 0-1.7-0.2-2.2-0.7s-0.8-1.2-0.8-2.1v-7.7H125.8z"/><path class="st8" d="M133.2 105.9V89.2h2.6v5.4c0.2-0.2 0.5-0.4 0.7-0.6 0.2-0.2 0.4-0.3 0.6-0.4 0.2-0.1 0.5-0.2 0.7-0.3 0.3-0.1 0.6-0.1 1-0.1 0.7 0 1.2 0.2 1.6 0.7 0.4 0.5 0.6 1.1 0.6 1.9v10h-2.6v-9.6c0-0.3-0.1-0.5-0.3-0.7s-0.4-0.2-0.7-0.2c-0.3 0-0.5 0.1-0.8 0.2 -0.3 0.2-0.5 0.3-0.9 0.6v9.7H133.2z"/><path class="st8" d="M143.4 97.8c0-0.7 0.1-1.3 0.2-1.9 0.1-0.6 0.4-1.1 0.7-1.5 0.3-0.4 0.7-0.7 1.2-0.9 0.5-0.2 1.1-0.3 1.9-0.3 0.7 0 1.4 0.1 1.9 0.3 0.5 0.2 0.9 0.5 1.2 0.9 0.3 0.4 0.6 0.9 0.7 1.5 0.1 0.6 0.2 1.2 0.2 1.9v3.6c0 0.7-0.1 1.3-0.2 1.9s-0.4 1.1-0.7 1.5 -0.7 0.7-1.2 0.9c-0.5 0.2-1.1 0.3-1.9 0.3 -0.7 0-1.4-0.1-1.9-0.3 -0.5-0.2-0.9-0.5-1.2-0.9 -0.3-0.4-0.6-0.9-0.7-1.5 -0.1-0.6-0.2-1.2-0.2-1.9V97.8zM148.8 97.4c0-0.7-0.1-1.2-0.4-1.6 -0.2-0.3-0.6-0.5-1.1-0.5s-0.8 0.2-1.1 0.5c-0.2 0.3-0.4 0.8-0.4 1.6v4.6c0 0.7 0.1 1.2 0.4 1.6 0.2 0.3 0.6 0.5 1.1 0.5s0.8-0.2 1.1-0.5c0.2-0.3 0.4-0.8 0.4-1.6V97.4z"/><path class="st8" d="M159.1 105.9v-1.3h0c-0.4 0.5-0.8 0.9-1.2 1.2 -0.4 0.2-0.9 0.4-1.5 0.4 -0.8 0-1.5-0.3-1.9-0.9s-0.7-1.4-0.7-2.6v-6c0-1.1 0.2-2 0.7-2.6 0.5-0.6 1.1-0.9 1.9-0.9 0.3 0 0.5 0 0.8 0.1 0.2 0.1 0.4 0.1 0.6 0.3 0.2 0.1 0.4 0.3 0.6 0.4 0.2 0.2 0.4 0.3 0.7 0.5v-5.3h2.6v16.7H159.1zM158.9 96c-0.3-0.2-0.5-0.3-0.7-0.5s-0.5-0.2-0.7-0.2c-0.4 0-0.7 0.1-0.9 0.4s-0.4 0.8-0.4 1.6v4.6c0 0.8 0.1 1.4 0.4 1.6 0.2 0.3 0.5 0.4 0.9 0.4 0.3 0 0.5-0.1 0.7-0.2 0.2-0.1 0.5-0.3 0.7-0.5V96z"/><path class="st8" d="M164 91.5v-2.4h2.6v2.4H164zM164 105.9V93.4h2.6v12.4H164z"/><path class="st8" d="M173.9 96.9c-0.2-1-0.7-1.5-1.5-1.5 -0.3 0-0.6 0.1-0.8 0.3 -0.2 0.2-0.3 0.4-0.3 0.7 0 0.3 0.1 0.6 0.4 0.9 0.2 0.3 0.5 0.5 0.9 0.8 0.4 0.3 0.8 0.6 1.2 0.9 0.4 0.3 0.8 0.6 1.2 1 0.4 0.4 0.7 0.8 0.9 1.2 0.2 0.5 0.4 1 0.4 1.6 0 0.6-0.1 1-0.3 1.5 -0.2 0.4-0.4 0.8-0.8 1.1 -0.3 0.3-0.7 0.5-1.2 0.6s-0.9 0.2-1.5 0.2c-1.1 0-2-0.3-2.7-0.9 -0.6-0.6-1.1-1.5-1.3-2.6l2.3-0.6c0.1 0.5 0.2 1 0.5 1.4 0.2 0.4 0.7 0.6 1.2 0.6 0.3 0 0.6-0.1 0.8-0.3 0.2-0.2 0.3-0.5 0.3-0.8s-0.1-0.7-0.4-1c-0.2-0.3-0.5-0.6-0.9-0.9 -0.4-0.3-0.8-0.6-1.2-0.9 -0.4-0.3-0.8-0.6-1.2-1 -0.4-0.4-0.7-0.7-0.9-1.2 -0.2-0.4-0.4-0.9-0.4-1.5 0-0.5 0.1-0.9 0.3-1.4 0.2-0.4 0.4-0.8 0.7-1.1 0.3-0.3 0.7-0.5 1.1-0.7 0.4-0.2 0.9-0.2 1.4-0.2 1 0 1.9 0.3 2.5 0.9 0.7 0.6 1.1 1.4 1.3 2.4L173.9 96.9z"/><path class="st8" d="M177.1 95.6v-2.1h1.4v-3.3h2.6v3.3h1.7v2.1h-1.7v7.2c0 0.7 0.3 1 0.9 1h0.9v2.2c-0.2 0-0.3 0.1-0.5 0.1s-0.4 0-0.8 0c-1 0-1.7-0.2-2.2-0.7s-0.8-1.2-0.8-2.1v-7.7H177.1z"/><path class="st8" d="M195.6 94.8v-1.3c0-0.7-0.1-1.2-0.4-1.5 -0.3-0.3-0.6-0.5-1-0.5 -0.6 0-1 0.2-1.2 0.5 -0.2 0.3-0.3 0.8-0.3 1.4v8.5c0 0.6 0.1 1.1 0.3 1.4 0.2 0.3 0.6 0.5 1.2 0.5 0.5 0 0.9-0.1 1.1-0.4 0.2-0.3 0.3-0.7 0.3-1.2v-2h2.9v1.9c0 0.6-0.1 1.1-0.3 1.7s-0.4 1-0.8 1.4c-0.3 0.4-0.8 0.7-1.3 0.9 -0.5 0.2-1.2 0.3-1.9 0.3 -0.8 0-1.4-0.1-2-0.3 -0.5-0.2-1-0.5-1.4-0.9 -0.4-0.4-0.6-0.8-0.8-1.4s-0.3-1.1-0.3-1.7v-8.6c0-0.6 0.1-1.1 0.3-1.7s0.4-1 0.8-1.4c0.4-0.4 0.8-0.7 1.4-0.9 0.5-0.2 1.2-0.3 2-0.3 0.7 0 1.3 0.1 1.9 0.4s1 0.6 1.3 1 0.6 0.9 0.8 1.5 0.3 1.1 0.3 1.8v1.2H195.6z"/><path class="st8" d="M201.2 105.9V89.2h2.6v5.4c0.2-0.2 0.5-0.4 0.7-0.6 0.2-0.2 0.4-0.3 0.6-0.4 0.2-0.1 0.5-0.2 0.7-0.3s0.6-0.1 1-0.1c0.7 0 1.2 0.2 1.6 0.7 0.4 0.5 0.6 1.1 0.6 1.9v10h-2.6v-9.6c0-0.3-0.1-0.5-0.3-0.7 -0.2-0.1-0.4-0.2-0.7-0.2s-0.5 0.1-0.8 0.2c-0.3 0.2-0.5 0.3-0.9 0.6v9.7H201.2z"/><path class="st8" d="M219.2 93.4v12.4h-2.4v-1.2c-0.3 0.2-0.5 0.4-0.7 0.6 -0.2 0.2-0.4 0.3-0.7 0.5 -0.2 0.1-0.5 0.2-0.8 0.3s-0.6 0.1-1 0.1c-0.7 0-1.2-0.2-1.6-0.7 -0.4-0.5-0.6-1.1-0.6-1.9v-10h2.6v9.6c0 0.3 0.1 0.5 0.3 0.7 0.2 0.1 0.4 0.2 0.7 0.2 0.3 0 0.5-0.1 0.8-0.2 0.3-0.2 0.5-0.3 0.9-0.6v-9.7H219.2z"/><path class="st8" d="M221.7 105.9V93.4h2.5v1.5h0c0.3-0.5 0.7-1 1.2-1.2 0.5-0.3 1.1-0.4 1.7-0.4h0.5v2.7c-0.2-0.1-0.5-0.1-0.7-0.2 -0.2-0.1-0.6-0.1-0.9-0.1 -0.4 0-0.8 0.1-1.2 0.4 -0.4 0.3-0.5 0.7-0.5 1.2v8.5H221.7z"/><path class="st8" d="M234.7 97.7v-0.3c0-0.7-0.1-1.2-0.4-1.6 -0.2-0.3-0.6-0.5-1.1-0.5s-0.8 0.2-1.1 0.5c-0.2 0.3-0.4 0.8-0.4 1.6v4.6c0 0.7 0.1 1.2 0.4 1.6 0.2 0.3 0.6 0.5 1.1 0.5s0.8-0.2 1.1-0.5c0.2-0.3 0.4-0.8 0.4-1.6v-0.8h2.6v0.3c0 0.7-0.1 1.3-0.2 1.9 -0.1 0.6-0.4 1.1-0.7 1.5s-0.7 0.7-1.2 0.9c-0.5 0.2-1.1 0.3-1.9 0.3s-1.4-0.1-1.9-0.3c-0.5-0.2-0.9-0.5-1.2-0.9s-0.6-0.9-0.7-1.5 -0.2-1.2-0.2-1.9v-3.6c0-0.7 0.1-1.3 0.2-1.9 0.1-0.6 0.4-1.1 0.7-1.5 0.3-0.4 0.7-0.7 1.2-0.9 0.5-0.2 1.1-0.3 1.9-0.3 0.7 0 1.3 0.1 1.8 0.3s0.9 0.5 1.2 0.9 0.5 0.9 0.7 1.4c0.1 0.6 0.2 1.2 0.2 1.8H234.7z"/><path class="st8" d="M239.7 105.9V89.2h2.6v5.4c0.2-0.2 0.5-0.4 0.7-0.6 0.2-0.2 0.4-0.3 0.6-0.4 0.2-0.1 0.5-0.2 0.7-0.3s0.6-0.1 1-0.1c0.7 0 1.2 0.2 1.6 0.7 0.4 0.5 0.6 1.1 0.6 1.9v10h-2.6v-9.6c0-0.3-0.1-0.5-0.3-0.7 -0.2-0.1-0.4-0.2-0.7-0.2s-0.5 0.1-0.8 0.2c-0.3 0.2-0.5 0.3-0.9 0.6v9.7H239.7z"/><path class="st8" d="M254.9 97.8c0-0.7 0.1-1.3 0.2-1.9 0.1-0.6 0.4-1.1 0.7-1.5 0.3-0.4 0.7-0.7 1.2-0.9 0.5-0.2 1.1-0.3 1.9-0.3s1.4 0.1 1.9 0.3c0.5 0.2 0.9 0.5 1.2 0.9 0.3 0.4 0.6 0.9 0.7 1.5 0.1 0.6 0.2 1.2 0.2 1.9v3.6c0 0.7-0.1 1.3-0.2 1.9 -0.1 0.6-0.4 1.1-0.7 1.5s-0.7 0.7-1.2 0.9c-0.5 0.2-1.1 0.3-1.9 0.3s-1.4-0.1-1.9-0.3c-0.5-0.2-0.9-0.5-1.2-0.9s-0.6-0.9-0.7-1.5 -0.2-1.2-0.2-1.9V97.8zM260.4 97.4c0-0.7-0.1-1.2-0.4-1.6 -0.2-0.3-0.6-0.5-1.1-0.5s-0.8 0.2-1.1 0.5c-0.2 0.3-0.4 0.8-0.4 1.6v4.6c0 0.7 0.1 1.2 0.4 1.6 0.2 0.3 0.6 0.5 1.1 0.5s0.8-0.2 1.1-0.5c0.2-0.3 0.4-0.8 0.4-1.6V97.4z"/><path class="st8" d="M265.8 95.6h-1.5v-2.1h1.5v-1.5c0-1 0.3-1.8 0.8-2.2 0.5-0.5 1.2-0.7 2.1-0.7h1.3v2.1h-0.7c-0.3 0-0.5 0.1-0.7 0.2 -0.1 0.1-0.2 0.3-0.2 0.6v1.5h1.5v2.1h-1.5v10.3h-2.6V95.6z"/><path class="st8" d="M277 93.2c0-0.6 0.1-1.1 0.3-1.7s0.4-1 0.8-1.4c0.4-0.4 0.8-0.7 1.4-0.9 0.5-0.2 1.2-0.3 2-0.3s1.4 0.1 2 0.3c0.5 0.2 1 0.5 1.4 0.9 0.4 0.4 0.6 0.8 0.8 1.4s0.3 1.1 0.3 1.7v8.6c0 0.6-0.1 1.1-0.3 1.7s-0.4 1-0.8 1.4c-0.4 0.4-0.8 0.7-1.4 0.9 -0.5 0.2-1.2 0.3-2 0.3s-1.4-0.1-2-0.3c-0.5-0.2-1-0.5-1.4-0.9 -0.4-0.4-0.6-0.8-0.8-1.4s-0.3-1.1-0.3-1.7V93.2zM279.9 101.8c0 0.6 0.1 1.1 0.3 1.4 0.2 0.3 0.6 0.5 1.2 0.5s1-0.2 1.2-0.5c0.2-0.3 0.3-0.8 0.3-1.4v-8.5c0-0.6-0.1-1.1-0.3-1.4 -0.2-0.3-0.6-0.5-1.2-0.5s-1 0.2-1.2 0.5c-0.2 0.3-0.3 0.8-0.3 1.4V101.8z"/><path class="st8" d="M288.4 105.9V93.4h2.5v1.5h0c0.3-0.5 0.7-1 1.2-1.2 0.5-0.3 1.1-0.4 1.7-0.4h0.5v2.7c-0.2-0.1-0.5-0.1-0.7-0.2 -0.2-0.1-0.6-0.1-0.9-0.1 -0.4 0-0.8 0.1-1.2 0.4 -0.4 0.3-0.5 0.7-0.5 1.2v8.5H288.4z"/><path class="st8" d="M295.8 97.1c0.1-1.3 0.5-2.2 1.2-2.9 0.7-0.7 1.7-1 2.9-1 1.2 0 2.1 0.3 2.8 0.8s1 1.4 1 2.5v8c0 0.2 0 0.4 0.1 0.6 0 0.2 0.1 0.5 0.1 0.7h-2.5c0-0.2 0-0.3-0.1-0.5 0-0.2-0.1-0.3-0.1-0.5 -0.5 0.4-1 0.7-1.4 0.9s-1 0.3-1.6 0.3c-0.9 0-1.5-0.3-2-0.8 -0.4-0.5-0.7-1.2-0.7-2 0-0.7 0.1-1.3 0.3-1.8s0.6-1 1-1.5c0.5-0.4 1-0.9 1.7-1.2 0.7-0.4 1.5-0.7 2.4-1.1v-0.7c0-1.1-0.4-1.6-1.3-1.6 -0.6 0-1 0.2-1.2 0.5 -0.2 0.3-0.3 0.7-0.3 1.3H295.8zM301.2 99.6c-0.6 0.3-1.1 0.6-1.5 0.9s-0.7 0.5-0.9 0.8c-0.2 0.3-0.4 0.5-0.5 0.8 -0.1 0.2-0.1 0.5-0.1 0.8 0 0.4 0.1 0.7 0.3 0.9 0.2 0.2 0.5 0.3 0.9 0.3 0.4 0 0.7-0.1 1-0.3 0.3-0.2 0.5-0.5 0.8-0.8V99.6z"/><path class="st8" d="M306.4 105.9V93.4h2.4v1.2c0.3-0.2 0.5-0.4 0.7-0.6 0.2-0.2 0.4-0.3 0.7-0.5 0.2-0.1 0.5-0.2 0.8-0.3s0.6-0.1 1-0.1c0.7 0 1.2 0.2 1.6 0.7 0.4 0.5 0.6 1.1 0.6 1.9v10h-2.6v-9.6c0-0.3-0.1-0.5-0.3-0.7 -0.2-0.1-0.4-0.2-0.7-0.2s-0.5 0.1-0.8 0.2c-0.3 0.2-0.5 0.3-0.9 0.6v9.7H306.4z"/><path class="st8" d="M325.2 95.4c-0.1 0-0.1 0-0.2 0s-0.1 0-0.2 0c-0.2 0-0.5 0-0.7 0.1 -0.2 0.1-0.4 0.2-0.6 0.3 0.1 0.3 0.2 0.7 0.2 1 0 0.4 0.1 0.7 0.1 0.9 0 1-0.1 1.7-0.2 2.4 -0.2 0.6-0.4 1.1-0.7 1.5 -0.3 0.4-0.7 0.7-1.2 0.8 -0.5 0.2-1.1 0.2-1.7 0.2h-0.8c-0.1 0-0.3 0.1-0.4 0.2 -0.1 0.1-0.2 0.2-0.2 0.4 0 0.3 0.2 0.5 0.5 0.5 0.3 0.1 0.7 0.1 1.2 0.2 0.5 0 1 0 1.6 0.1 0.6 0 1.1 0.1 1.6 0.3 0.5 0.2 0.9 0.5 1.2 0.8 0.3 0.4 0.5 0.9 0.5 1.7 0 1.1-0.5 1.8-1.4 2.3s-2.2 0.7-3.9 0.7c-1.3 0-2.3-0.2-3-0.5 -0.7-0.3-1.1-0.8-1.1-1.5 0-0.5 0.2-0.9 0.5-1.3s0.7-0.6 1.2-0.7v0c-0.4-0.1-0.6-0.3-0.9-0.6 -0.2-0.3-0.3-0.6-0.3-1 0-0.2 0-0.4 0.2-0.6 0.1-0.2 0.2-0.4 0.4-0.6 0.2-0.2 0.3-0.3 0.5-0.5 0.2-0.1 0.4-0.3 0.5-0.4 -0.3-0.2-0.6-0.5-0.8-0.7 -0.2-0.2-0.4-0.5-0.5-0.8s-0.2-0.7-0.3-1.2 -0.1-1.1-0.1-1.8c0-0.8 0.1-1.6 0.2-2.1s0.4-1.1 0.7-1.4c0.3-0.4 0.7-0.6 1.2-0.8 0.5-0.2 1.1-0.2 1.8-0.2 0.6 0 1.1 0.1 1.5 0.3 0.5 0.2 0.9 0.6 1.3 1 0.2-0.2 0.3-0.5 0.5-0.6 0.1-0.2 0.3-0.3 0.5-0.4 0.2-0.1 0.3-0.2 0.5-0.2 0.2 0 0.4-0.1 0.7-0.1V95.4zM320.7 107.9c0.9 0 1.4-0.1 1.7-0.2 0.3-0.1 0.5-0.4 0.5-0.7 0-0.3-0.2-0.6-0.5-0.7 -0.3-0.1-0.9-0.2-1.7-0.2 -0.9 0-1.4 0.1-1.7 0.2 -0.3 0.1-0.5 0.4-0.5 0.7 0 0.3 0.1 0.6 0.5 0.7C319.3 107.9 319.8 107.9 320.7 107.9zM319.9 100.6c0.2 0 0.5 0 0.6-0.1 0.2-0.1 0.3-0.2 0.4-0.4 0.1-0.2 0.2-0.5 0.2-0.8 0-0.3 0.1-0.8 0.1-1.3s0-1-0.1-1.3c0-0.3-0.1-0.6-0.2-0.8 -0.1-0.2-0.2-0.3-0.4-0.4 -0.2-0.1-0.4-0.1-0.6-0.1 -0.2 0-0.4 0-0.6 0.1 -0.2 0.1-0.3 0.2-0.4 0.4 -0.1 0.2-0.2 0.5-0.3 0.8 -0.1 0.3-0.1 0.8-0.1 1.3s0 1 0.1 1.3c0.1 0.3 0.1 0.6 0.3 0.8 0.1 0.2 0.3 0.3 0.4 0.4C319.5 100.5 319.7 100.6 319.9 100.6z"/><path class="st8" d="M334.8 100.1h-5.5v1.8c0 0.7 0.1 1.2 0.4 1.6 0.2 0.3 0.6 0.5 1.1 0.5s0.8-0.2 1.1-0.5c0.2-0.3 0.4-0.8 0.4-1.6v-0.3h2.6c0 0.7-0.1 1.3-0.2 1.8s-0.4 1-0.7 1.4 -0.7 0.7-1.2 0.9c-0.5 0.2-1.1 0.3-1.8 0.3 -0.7 0-1.4-0.1-1.9-0.3 -0.5-0.2-0.9-0.5-1.2-0.9s-0.6-0.9-0.7-1.5 -0.2-1.2-0.2-1.9v-3.6c0-0.7 0.1-1.3 0.2-1.9 0.1-0.6 0.4-1.1 0.7-1.5 0.3-0.4 0.7-0.7 1.2-0.9 0.5-0.2 1.1-0.3 1.9-0.3s1.4 0.1 1.9 0.3c0.5 0.2 0.9 0.5 1.2 0.9 0.3 0.4 0.6 0.9 0.7 1.5 0.1 0.6 0.2 1.2 0.2 1.9V100.1zM332.2 98v-0.6c0-0.7-0.1-1.2-0.4-1.6 -0.2-0.3-0.6-0.5-1.1-0.5s-0.8 0.2-1.1 0.5c-0.2 0.3-0.4 0.8-0.4 1.6V98H332.2z"/></svg>
